<?xml version="1.0" encoding="UTF-8"?>
<svg width="22px" height="22px" viewBox="0 0 22 22" version="1.1" xmlns="http://www.w3.org/2000/svg">
    <g id="Page-1" stroke="none" stroke-width="1" fill="none" fill-rule="evenodd">
        <g id="Question" transform="translate(-1009.000000, -417.000000)" fill-rule="nonzero" fill="#FFFFFF">
            <g id="Group-2" transform="translate(374.000000, 220.000000)">
                <path d="M647.944523,207.999914 L656.597122,199.346971 C657.134064,198.81003 657.134064,197.939304 656.597122,197.402706 C656.06018,196.865765 655.189798,196.865765 654.652857,197.402706 L645.999914,206.055305 L637.347315,197.402706 C636.810374,196.865765 635.939648,196.865765 635.402706,197.402706 C634.865765,197.939648 634.865765,198.810374 635.402706,199.346971 L644.055649,207.999914 L635.402706,216.652857 C634.865765,217.189798 634.865765,218.060524 635.402706,218.597122 C635.671177,218.865593 636.02318,219 636.374839,219 C636.726498,219 637.078844,218.865593 637.347315,218.597122 L645.999914,209.944523 L654.652857,218.597122 C654.921328,218.865593 655.27333,219 655.624989,219 C655.976648,219 656.328995,218.865593 656.597122,218.597122 C657.134064,218.06018 657.134064,217.189455 656.597122,216.652857 L647.944523,207.999914 Z"
                      id="Shape"/>
            </g>
        </g>
    </g>
</svg>
